HIERARCHY
ROOT Hips
{
  OFFSET 0 0 0
  CHANNELS 6 Xposition Yposition Zposition Zrotation Yrotation Xrotation
  JOINT LeftThigh
  {
    OFFSET 8.409438 0 -5.917753
    CHANNELS 3 Zrotation Yrotation Xrotation
    JOINT LeftLeg
    {
      OFFSET 0 0 -42.358652
      CHANNELS 3 Zrotation Yrotation Xrotation
      JOINT LeftFoot
      {
        OFFSET 0 0 -39.357303
        CHANNELS 3 Zrotation Yrotation Xrotation
      }
    }
  }
  JOINT RightThigh
  {
    OFFSET -8.409438 0 -5.917753
    CHANNELS 3 Zrotation Yrotation Xrotation
    JOINT RightLeg
    {
      OFFSET 0 0 -42.358652
      CHANNELS 3 Zrotation Yrotation Xrotation
      JOINT RightFoot
      {
        OFFSET 0 0 -39.357303
        CHANNELS 3 Zrotation Yrotation Xrotation
      }
    }
  }
  JOINT SpineLow
  {
    OFFSET 0 0 4.719101
    CHANNELS 3 Zrotation Yrotation Xrotation
    JOINT SpineMid
    {
      OFFSET 0 0 12.899191
      CHANNELS 3 Zrotation Yrotation Xrotation
      JOINT Chest
      {
        OFFSET 0 0 12.899191
        CHANNELS 3 Zrotation Yrotation Xrotation
        JOINT LeftShoulder
        {
          OFFSET 7.550562 1.41573 9.438202
          CHANNELS 3 Zrotation Yrotation Xrotation
          JOINT LeftArm
          {
            OFFSET 9.155056 0 4.247191
            CHANNELS 3 Zrotation Yrotation Xrotation
            JOINT LeftForearm
            {
              OFFSET 0 0 25.771955
              CHANNELS 3 Zrotation Yrotation Xrotation
              JOINT LeftHand
              {
                OFFSET 0 0 25.197169
                CHANNELS 3 Zrotation Yrotation Xrotation
              }
            }
          }
        }
        JOINT RightShoulder
        {
          OFFSET -7.550562 1.41573 9.438202
          CHANNELS 3 Zrotation Yrotation Xrotation
          JOINT RightArm
          {
            OFFSET -9.155056 0 4.247191
            CHANNELS 3 Zrotation Yrotation Xrotation
            JOINT RightForearm
            {
              OFFSET 0 0 -25.771955
              CHANNELS 3 Zrotation Yrotation Xrotation
              JOINT RightHand
              {
                OFFSET 0 0 -25.197169
                CHANNELS 3 Zrotation Yrotation Xrotation
              }
            }
          }
        }
        JOINT Neck
        {
          OFFSET 0 0 15.101124
          CHANNELS 3 Zrotation Yrotation Xrotation
          JOINT Head
          {
            OFFSET 0 0 11.325843
            CHANNELS 3 Zrotation Yrotation Xrotation
            End Site
            {
              OFFSET 0 0 14.157303
            }
          }
        }
      }
    }
  }
}
MOTION
Frames: 5
Frame Time: 0.0
0.0  89.887642  0.0  3.414123  35.376372  -90.954481  7.952835  -44.880909  0.757076  2.839527  48.736201  42.241471  8.002611  3.98046  2.143808  -28.816072  -0.516107  -40.351089  12.62237  16.78439  63.401009  2.945411  3.156254  0.656351  -2.696858  0.161731  1.076347  -7.362874  0.561247  2.919928  -7.362874  0.561247  2.919928  -13.894641  19.060355  4.418844  131.961744  45.270935  -145.238924  -33.64029  -7.567185  58.014725  79.384114  12.121035  25.354599  0.952906  -0.611214  18.276583  9.97869  59.692619  -24.445161  -22.475564  -10.107284  -77.462476  68.569839  -3.189297  -31.400807  -18.970687  -1.891407  -0.194026  -14.227322  -1.414147  -0.204504  
0.0  89.887642  0.0  2.983618  35.158568  -90.691704  10.238149  -45.290916  -1.181512  1.104312  49.251482  41.722018  8.384993  4.060408  2.191534  -27.794299  0.316461  -40.86936  9.037347  17.156526  63.003016  2.857941  4.071768  0.696763  -2.677642  0.112459  1.03593  -7.312795  0.421477  2.815218  -7.312795  0.421477  2.815218  -14.126651  18.93389  3.780225  131.438731  44.542966  -145.983999  -33.850921  -7.966076  58.235236  79.533004  12.254885  25.377433  0.987559  -0.682209  18.104179  9.883472  59.273717  -24.662181  -21.928638  -10.403465  -77.42634  68.758208  -3.452599  -31.320233  -19.102203  -2.206208  -0.335896  -14.326094  -1.646062  -0.321291  
0.0  89.887642  0.0  2.51256  35.044757  -90.32313  12.929564  -45.483136  -3.425236  -0.956827  49.514881  41.004729  8.824978  4.102232  2.307  -27.402293  0.491863  -41.461195  6.83106  18.545118  62.906642  3.386054  3.980929  0.599293  -2.799958  0.137881  1.037  -7.646003  0.496151  2.814269  -7.646002  0.496151  2.814269  -13.36439  18.337545  3.357779  131.114315  44.252415  -146.357216  -33.941567  -7.78207  58.561525  79.706397  12.498731  24.9073  1.632845  -1.189881  17.452485  9.649035  58.745208  -24.709093  -20.964637  -10.773416  -77.795145  68.97059  -3.545986  -31.3493  -18.707545  -2.853283  -0.519918  -14.03019  -2.126408  -0.477841  
0.0  89.887642  0.0  2.165122  34.815453  -90.118548  15.152697  -45.516279  -5.03838  -2.459593  49.495648  40.506747  9.009083  4.097422  2.481688  -27.65043  0.161949  -41.923932  6.206673  19.929079  62.833765  4.594033  3.54479  0.546016  -2.903069  0.141988  1.09262  -7.927118  0.518381  2.964649  -7.927118  0.518381  2.964649  -12.599741  17.990597  2.772182  130.730894  44.23126  -146.591081  -34.459495  -7.810176  58.518919  79.754287  12.654465  24.850631  2.504664  -1.355981  16.688582  10.061469  58.142335  -24.290571  -20.716481  -10.530445  -77.973417  69.217669  -3.485195  -31.602576  -18.370051  -3.345456  -0.859405  -13.778348  -2.485926  -0.745883  
0.0  89.887642  0.0  1.947706  34.786887  -90.024383  16.346144  -45.380165  -5.969437  -3.233564  49.249298  40.482034  8.862389  4.063787  2.4542  -28.637383  -0.418038  -42.268062  6.867775  19.823438  62.677852  5.268147  3.192105  0.823914  -3.061041  0.122108  1.109379  -8.35955  0.473309  3.011402  -8.35955  0.473309  3.011402  -11.901564  18.041718  2.364794  130.731724  44.221584  -146.636056  -35.114084  -7.773066  58.432782  79.913588  12.956191  24.958889  3.102124  -1.314507  16.247681  10.880809  57.701003  -23.561291  -20.690168  -9.964759  -78.164696  69.529186  -3.179865  -32.013306  -17.932426  -3.491021  -1.088652  -13.451415  -2.588973  -0.919774  
